<?xml version="1.0" encoding="utf-8"?>
<!-- Generator: Adobe Illustrator 17.1.0, SVG Export Plug-In . SVG Version: 6.00 Build 0)  -->
<!DOCTYPE svg PUBLIC "-//W3C//DTD SVG 1.1//EN" "http://www.w3.org/Graphics/SVG/1.1/DTD/svg11.dtd">
<svg version="1.1" id="Layer_1" xmlns="http://www.w3.org/2000/svg" xmlns:xlink="http://www.w3.org/1999/xlink" x="0px" y="0px"
	 viewBox="0 0 30 31.2" enable-background="new 0 0 30 31.2" xml:space="preserve">
<g id="google_x2B_">
	<g>
		<path fill="#FFFFFF" d="M16,17.9c-0.9-0.6-2.5-2.1-2.5-3c0-1,0.3-1.5,1.9-2.8c1.6-1.2,2.7-3,2.7-5c0-2.4-1.1-4.8-3.1-5.6H18
			L20.1,0h-9.6C6.2,0,2.1,3.3,2.1,7.1c0,3.9,2.9,7,7.3,7c0.3,0,0.6,0,0.9,0c-0.3,0.5-0.5,1.2-0.5,1.8c0,1.1,0.6,2,1.3,2.7
			c-0.6,0-1.1,0-1.7,0c-5.4,0-9.5,3.4-9.5,7c0,3.5,4.5,5.7,9.9,5.7c6.1,0,9.5-3.5,9.5-7C19.4,21.4,18.5,19.7,16,17.9z M10.8,13.1
			C8.3,13,6,10.3,5.6,7.1C5.1,3.8,6.8,1.3,9.3,1.4c2.5,0.1,4.8,2.7,5.3,6C15,10.6,13.3,13.2,10.8,13.1z M9.9,29.6
			c-3.7,0-6.4-2.3-6.4-5.2c0-2.8,3.3-5.1,7-5c0.9,0,1.7,0.1,2.4,0.4c2,1.4,3.5,2.2,3.9,3.8c0.1,0.3,0.1,0.7,0.1,1
			C16.9,27.4,15.1,29.6,9.9,29.6z"/>
		<polygon fill="#FFFFFF" points="26.3,13.4 26.3,9.6 23.2,9.6 23.2,13.4 19.5,13.4 19.5,16.4 23.2,16.4 23.2,20.2 26.3,20.2 
			26.3,16.4 30,16.4 30,13.4 		"/>
	</g>
</g>
</svg>
