<?xml version="1.0" encoding="utf-8"?>
<!-- Generator: Adobe Illustrator 17.1.0, SVG Export Plug-In . SVG Version: 6.00 Build 0)  -->
<!DOCTYPE svg PUBLIC "-//W3C//DTD SVG 1.1//EN" "http://www.w3.org/Graphics/SVG/1.1/DTD/svg11.dtd">
<svg version="1.1" id="Layer_1" xmlns="http://www.w3.org/2000/svg" xmlns:xlink="http://www.w3.org/1999/xlink" x="0px" y="0px"
	 viewBox="0 0 31.9 27.9" enable-background="new 0 0 31.9 27.9" xml:space="preserve">
<g>
	<g>
		<path fill="#FFFFFF" d="M31.9,3.3c-1.2,0.6-2.4,0.9-3.8,1.1c1.4-0.9,2.4-2.2,2.9-3.9c-1.3,0.8-2.7,1.4-4.2,1.7
			C25.7,0.9,23.9,0,22.1,0c-3.6,0-6.5,3.1-6.5,7c0,0.5,0.1,1.1,0.2,1.6C10.3,8.4,5.4,5.5,2.2,1.3c-0.6,1-0.9,2.2-0.9,3.5
			c0,2.4,1.2,4.6,2.9,5.9c-1.1,0-2.1-0.3-3-0.9c0,0,0,0.1,0,0.1c0,3.4,2.3,6.2,5.2,6.9C6,17,5.4,17,4.8,17c-0.4,0-0.8,0-1.2-0.1
			c0.8,2.8,3.2,4.8,6.1,4.9c-2.2,1.9-5.1,3-8.1,3c-0.5,0-1.1,0-1.6-0.1c2.9,2,6.3,3.2,10,3.2c12,0,18.6-10.7,18.6-20
			c0-0.3,0-0.6,0-0.9C29.9,6,31,4.7,31.9,3.3z"/>
	</g>
</g>
</svg>
