<?xml version="1.0" encoding="UTF-8"?>
<svg width="163px" height="158px" viewBox="0 0 163 158" version="1.1" xmlns="http://www.w3.org/2000/svg" xmlns:xlink="http://www.w3.org/1999/xlink">
    <!-- Generator: Sketch 50.2 (55047) - http://www.bohemiancoding.com/sketch -->
    <title>world-cup-2018-kick-off</title>
    <desc>Created with Sketch.</desc>
    <defs></defs>
    <g id="Page-1" stroke="none" stroke-width="1" fill="none" fill-rule="evenodd">
        <g id="world-cup-2018-kick-off" transform="translate(-20.000000, 0.000000)" fill="#FFFFFF">
            <path d="M37.036,157 L31.9,143.608 L30.268,146.68 L30.268,157 L24.988,157 L24.988,123.4 L30.268,123.4 L30.268,138.04 L37.18,123.4 L42.46,123.4 L35.116,138.376 L42.46,157 L37.036,157 Z M48.86,157 L48.86,123.4 L54.14,123.4 L54.14,157 L48.86,157 Z M72.3,144.472 L77.292,144.472 L77.292,148.936 C77.292,154.312 74.604,157.384 69.42,157.384 C64.236,157.384 61.548,154.312 61.548,148.936 L61.548,131.464 C61.548,126.088 64.236,123.016 69.42,123.016 C74.604,123.016 77.292,126.088 77.292,131.464 L77.292,134.728 L72.3,134.728 L72.3,131.128 C72.3,128.728 71.244,127.816 69.564,127.816 C67.884,127.816 66.828,128.728 66.828,131.128 L66.828,149.272 C66.828,151.672 67.884,152.536 69.564,152.536 C71.244,152.536 72.3,151.672 72.3,149.272 L72.3,144.472 Z M96.556,157 L91.42,143.608 L89.788,146.68 L89.788,157 L84.508,157 L84.508,123.4 L89.788,123.4 L89.788,138.04 L96.7,123.4 L101.98,123.4 L94.636,138.376 L101.98,157 L96.556,157 Z M119.388,148.936 L119.388,131.464 C119.388,126.088 122.22,123.016 127.404,123.016 C132.588,123.016 135.42,126.088 135.42,131.464 L135.42,148.936 C135.42,154.312 132.588,157.384 127.404,157.384 C122.22,157.384 119.388,154.312 119.388,148.936 Z M124.668,131.128 L124.668,149.272 C124.668,151.672 125.724,152.584 127.404,152.584 C129.084,152.584 130.14,151.672 130.14,149.272 L130.14,131.128 C130.14,128.728 129.084,127.816 127.404,127.816 C125.724,127.816 124.668,128.728 124.668,131.128 Z M148.108,128.2 L148.108,138.328 L154.924,138.328 L154.924,143.128 L148.108,143.128 L148.108,157 L142.828,157 L142.828,123.4 L156.796,123.4 L156.796,128.2 L148.108,128.2 Z M168.62,128.2 L168.62,138.328 L175.436,138.328 L175.436,143.128 L168.62,143.128 L168.62,157 L163.34,157 L163.34,123.4 L177.308,123.4 L177.308,128.2 L168.62,128.2 Z" id="Kick-Off"></path>
            <path d="M35.252,11.2 L31.94,34 L26.804,34 L22.196,0.4 L25.844,0.4 L29.78,29.008 L33.524,0.448 L37.22,0.448 L40.916,29.056 L44.708,0.4 L47.972,0.4 L43.412,34 L38.468,34 L35.252,11.2 Z M50.708,25.888 L50.708,8.512 C50.708,3.376 53.252,0.064 58.388,0.064 C63.572,0.064 66.116,3.376 66.116,8.512 L66.116,25.888 C66.116,30.976 63.572,34.336 58.388,34.336 C53.252,34.336 50.708,30.976 50.708,25.888 Z M54.404,8.32 L54.404,26.08 C54.404,29.152 55.7,30.928 58.388,30.928 C61.124,30.928 62.372,29.152 62.372,26.08 L62.372,8.32 C62.372,5.296 61.124,3.472 58.388,3.472 C55.7,3.472 54.404,5.296 54.404,8.32 Z M69.668,0.4 L77.156,0.4 C82.436,0.4 84.644,3.088 84.644,8.08 L84.644,10.816 C84.644,14.512 83.348,16.816 80.468,17.728 C83.54,18.64 84.692,21.136 84.692,24.736 L84.692,29.968 C84.692,31.456 84.74,32.848 85.364,34 L81.572,34 C81.14,33.04 80.948,32.176 80.948,29.92 L80.948,24.64 C80.948,20.848 79.172,19.648 76.052,19.648 L73.412,19.648 L73.412,34 L69.668,34 L69.668,0.4 Z M73.412,16.24 L76.196,16.24 C79.172,16.24 80.948,15.28 80.948,11.632 L80.948,8.416 C80.948,5.392 79.844,3.808 77.06,3.808 L73.412,3.808 L73.412,16.24 Z M101.924,34 L88.58,34 L88.58,0.4 L92.324,0.4 L92.324,30.592 L101.924,30.592 L101.924,34 Z M104.756,0.4 L112.628,0.4 C117.86,0.4 120.26,3.568 120.26,8.752 L120.26,25.696 C120.26,30.832 117.86,34 112.628,34 L104.756,34 L104.756,0.4 Z M108.5,30.592 L112.58,30.592 C115.268,30.592 116.564,28.912 116.564,25.84 L116.564,8.56 C116.564,5.488 115.268,3.808 112.532,3.808 L108.5,3.808 L108.5,30.592 Z M138.452,0.064 C143.636,0.064 146.036,3.424 146.036,8.512 L146.036,11.536 L142.484,11.536 L142.484,8.32 C142.484,5.296 141.284,3.472 138.548,3.472 C135.86,3.472 134.612,5.296 134.612,8.32 L134.612,26.08 C134.612,29.104 135.86,30.928 138.548,30.928 C141.284,30.928 142.484,29.104 142.484,26.08 L142.484,21.712 L146.036,21.712 L146.036,25.888 C146.036,30.976 143.636,34.336 138.452,34.336 C133.316,34.336 130.916,30.976 130.916,25.888 L130.916,8.512 C130.916,3.424 133.316,0.064 138.452,0.064 Z M152.996,0.4 L152.996,26.08 C152.996,29.104 154.196,30.928 156.932,30.928 C159.62,30.928 160.82,29.104 160.82,26.08 L160.82,0.4 L164.324,0.4 L164.324,25.888 C164.324,30.976 161.972,34.384 156.788,34.384 C151.652,34.384 149.3,30.976 149.3,25.888 L149.3,0.4 L152.996,0.4 Z M168.02,0.4 L175.364,0.4 C180.644,0.4 182.9,3.52 182.9,8.608 L182.9,12.64 C182.9,17.968 180.404,20.752 175.076,20.752 L171.764,20.752 L171.764,34 L168.02,34 L168.02,0.4 Z M171.764,17.392 L175.076,17.392 C177.86,17.392 179.204,16.096 179.204,12.88 L179.204,8.416 C179.204,5.344 178.1,3.808 175.364,3.808 L171.764,3.808 L171.764,17.392 Z" id="World-Cup"></path>
            <path d="M20.448,97.088 L33.696,72.104 C34.3680034,70.8559938 34.7519995,69.7640047 34.848,68.828 C34.9440005,67.8919953 34.992,66.728007 34.992,65.336 C34.992,64.7119969 34.9680002,64.0520035 34.92,63.356 C34.8719998,62.6599965 34.7400011,62.0480026 34.524,61.52 C34.3079989,60.9919974 33.9600024,60.5480018 33.48,60.188 C32.9999976,59.8279982 32.3040046,59.648 31.392,59.648 C30.2879945,59.648 29.4120032,59.9599969 28.764,60.584 C28.1159968,61.2080031 27.792,62.119994 27.792,63.32 L27.792,67.496 L20.448,67.496 L20.448,63.464 C20.448,61.9279923 20.7359971,60.4880067 21.312,59.144 C21.8880029,57.7999933 22.6679951,56.624005 23.652,55.616 C24.6360049,54.607995 25.7999933,53.804003 27.144,53.204 C28.4880067,52.603997 29.9279923,52.304 31.464,52.304 C33.3840096,52.304 35.0279932,52.6519965 36.396,53.348 C37.7640068,54.0440035 38.8919956,54.991994 39.78,56.192 C40.6680044,57.392006 41.315998,58.7599923 41.724,60.296 C42.132002,61.8320077 42.336,63.4639914 42.336,65.192 C42.336,66.4400062 42.3120002,67.4839958 42.264,68.324 C42.2159998,69.1640042 42.1200007,69.9679962 41.976,70.736 C41.8319993,71.5040038 41.5920017,72.2719962 41.256,73.04 C40.9199983,73.8080038 40.4640029,74.7439945 39.888,75.848 L29.088,96.656 L42.336,96.656 L42.336,104 L20.448,104 L20.448,97.088 Z M127.728,60.512 L120.384,65.912 L120.384,58.136 L127.728,52.736 L135.072,52.736 L135.072,104 L127.728,104 L127.728,60.512 Z M175.344,63.248 C175.344,62.239995 174.984004,61.3880035 174.264,60.692 C173.543996,59.9959965 172.704005,59.648 171.744,59.648 C170.783995,59.648 169.944004,59.9959965 169.224,60.692 C168.503996,61.3880035 168.144,62.239995 168.144,63.248 L168.144,70.736 C168.144,71.744005 168.503996,72.5959965 169.224,73.292 C169.944004,73.9880035 170.783995,74.336 171.744,74.336 C172.704005,74.336 173.543996,73.9880035 174.264,73.292 C174.984004,72.5959965 175.344,71.744005 175.344,70.736 L175.344,63.248 Z M160.8,66.128 C160.8,64.735993 160.848,63.5480049 160.944,62.564 C161.04,61.5799951 161.195999,60.7280036 161.412,60.008 C161.628001,59.2879964 161.903998,58.6400029 162.24,58.064 C162.576002,57.4879971 162.983998,56.8880031 163.464,56.264 C164.424005,55.0159938 165.623993,54.0440035 167.064,53.348 C168.504007,52.6519965 170.063992,52.304 171.744,52.304 C173.424008,52.304 174.983993,52.6519965 176.424,53.348 C177.864007,54.0440035 179.063995,55.0159938 180.024,56.264 C180.504002,56.8880031 180.911998,57.4879971 181.248,58.064 C181.584002,58.6400029 181.859999,59.2879964 182.076,60.008 C182.292001,60.7280036 182.448,61.5799951 182.544,62.564 C182.64,63.5480049 182.688,64.735993 182.688,66.128 C182.688,67.6640077 182.664,68.9599947 182.616,70.016 C182.568,71.0720053 182.424001,72.0079959 182.184,72.824 C181.943999,73.6400041 181.572003,74.3719968 181.068,75.02 C180.563997,75.6680032 179.880004,76.3519964 179.016,77.072 C179.880004,77.7440034 180.563997,78.4159966 181.068,79.088 C181.572003,79.7600034 181.943999,80.5519954 182.184,81.464 C182.424001,82.3760046 182.568,83.4919934 182.616,84.812 C182.664,86.1320066 182.688,87.7519904 182.688,89.672 C182.688,91.2560079 182.652,92.5639948 182.58,93.596 C182.508,94.6280052 182.400001,95.5279962 182.256,96.296 C182.111999,97.0640038 181.908001,97.7119974 181.644,98.24 C181.379999,98.7680026 181.056002,99.3199971 180.672,99.896 C179.855996,101.144006 178.704007,102.211996 177.216,103.1 C175.727993,103.988004 173.904011,104.432 171.744,104.432 C169.583989,104.432 167.760007,103.988004 166.272,103.1 C164.783993,102.211996 163.632004,101.144006 162.816,99.896 C162.431998,99.3199971 162.108001,98.7680026 161.844,98.24 C161.579999,97.7119974 161.376001,97.0640038 161.232,96.296 C161.087999,95.5279962 160.98,94.6280052 160.908,93.596 C160.836,92.5639948 160.8,91.2560079 160.8,89.672 C160.8,87.7519904 160.824,86.1320066 160.872,84.812 C160.92,83.4919934 161.063999,82.3760046 161.304,81.464 C161.544001,80.5519954 161.915997,79.7600034 162.42,79.088 C162.924003,78.4159966 163.607996,77.7440034 164.472,77.072 C163.607996,76.3519964 162.924003,75.6680032 162.42,75.02 C161.915997,74.3719968 161.544001,73.6400041 161.304,72.824 C161.063999,72.0079959 160.92,71.0720053 160.872,70.016 C160.824,68.9599947 160.8,67.6640077 160.8,66.128 Z M175.344,83.408 C175.344,82.399995 174.984004,81.5480035 174.264,80.852 C173.543996,80.1559965 172.704005,79.808 171.744,79.808 C170.783995,79.808 169.944004,80.1559965 169.224,80.852 C168.503996,81.5480035 168.144,82.399995 168.144,83.408 L168.144,93.488 C168.144,94.496005 168.503996,95.3479965 169.224,96.044 C169.944004,96.7400035 170.783995,97.088 171.744,97.088 C172.704005,97.088 173.543996,96.7400035 174.264,96.044 C174.984004,95.3479965 175.344,94.496005 175.344,93.488 L175.344,83.408 Z" id="2-18"></path>
            <g id="football-clock" transform="translate(52.000000, 49.000000)">
                <path d="M16.6798679,3.24567375 C16.4815419,2.57585625 15.9368437,2.07207 15.2627216,1.93450125 L5.95164205,0.03700125 C5.34176634,-0.08823375 4.70954403,0.10626 4.27006108,0.5559675 L0.545629261,4.3509675 C0.105215199,4.79972625 -0.0856619318,5.44203 0.0363132102,6.06535875 L1.89852912,15.5528587 C2.03353977,16.238805 2.52702699,16.7938237 3.1843892,16.9959075 C3.36223082,17.050935 3.54379687,17.0775 3.72443182,17.0775 C4.21047017,17.0775 4.68719744,16.8830062 5.04101847,16.5215325 L16.2143139,5.1365325 C16.7003523,4.64223375 16.879125,3.9145425 16.6798679,3.24567375 L16.6798679,3.24567375 Z M4.10794117,12.4797116 L2.82660915,5.95042695 L5.84022446,2.87971157 L12.2480968,4.18655665 L4.10794117,12.4797116 L4.10794117,12.4797116 Z" id="Shape"></path>
                <path d="M53.2755682,17.3175 C53.4562031,17.3175 53.6377692,17.290935 53.8156108,17.2359075 C54.472973,17.032875 54.9673913,16.4778563 55.1014709,15.7928588 L56.9636868,6.30535875 C57.0856619,5.68297875 56.8947848,5.03972625 56.4543707,4.5909675 L52.7299389,0.7959675 C52.2895249,0.34626 51.6573026,0.15176625 51.048358,0.27700125 L41.7372784,2.17450125 C41.0631562,2.31207 40.5184581,2.81585625 40.3201321,3.48567375 C40.120875,4.1545425 40.3005788,4.88223375 40.7856861,5.3765325 L51.9589815,16.7615325 C52.3128026,17.1230063 52.7895298,17.3175 53.2755682,17.3175 L53.2755682,17.3175 Z M51.1232437,3.11971157 L54.136859,6.19042695 L52.855527,12.7197116 L44.7153714,4.42532145 L51.1232437,3.11971157 L51.1232437,3.11971157 Z" id="Shape"></path>
                <polygon id="Polygon-1" points="28.2615322 23.9606325 33.4363439 28.0029372 31.4597417 34.5435235 25.0633227 34.5435235 23.0867205 28.0029372"></polygon>
                <polygon id="Polygon-2" points="28.2615322 10.665 33.4363439 13.0536346 31.4597417 16.9185265 25.0633227 16.9185265 23.0867205 13.0536346"></polygon>
                <polygon id="Polygon-3" points="42.780798 21.478608 47.9556097 23.8672426 45.9790075 27.7321345 39.5825885 27.7321345 37.6059863 23.8672426"></polygon>
                <polygon id="Polygon-4" points="36.9267369 38.8174631 42.1015486 41.2060976 40.1249464 45.0709896 33.7285274 45.0709896 31.7519252 41.2060976"></polygon>
                <polygon id="Polygon-5" points="19.5523006 38.7826659 24.7271123 41.1713005 22.7505101 45.0361924 16.3540911 45.0361924 14.377489 41.1713005"></polygon>
                <polygon id="Polygon-6" points="13.7943903 21.5518378 18.969202 23.9404724 16.9925998 27.8053643 10.5961808 27.8053643 8.61957861 23.9404724"></polygon>
                <path d="M52.5910382,29.64 C52.5910382,16.0377712 41.730595,4.9725 28.3822314,4.9725 C15.0338678,4.9725 4.17342459,16.0377712 4.17342459,29.64 C4.17342459,38.9159287 9.22654746,47.009715 16.6735489,51.2212162 L11.2368095,56.7609675 C10.5096142,57.5019413 10.5096142,58.7030587 11.2368095,59.4440325 C11.5999416,59.8149937 12.0766689,60 12.5533962,60 C13.0301235,60 13.5068507,59.8149937 13.8699828,59.4440325 L20.3020766,52.8900675 C22.8309658,53.8046625 25.549801,54.3075 28.3822314,54.3075 C31.2146618,54.3075 33.933497,53.8046625 36.4623862,52.8900675 L42.89448,59.4440325 C43.2576121,59.8149937 43.7343394,60 44.2110666,60 C44.6877939,60 45.1645212,59.8149937 45.5276533,59.4440325 C46.2548486,58.7030588 46.2548486,57.5019413 45.5276533,56.7609675 L40.0909139,51.2212162 C47.5379154,47.009715 52.5910382,38.9159287 52.5910382,29.64 L52.5910382,29.64 Z M36.8757982,48.626385 C36.3618266,48.5950762 35.8376128,48.770595 35.4456163,49.1709675 C35.4186142,49.1984813 35.3999921,49.22979 35.3748521,49.2592012 C33.1923351,50.0694337 30.8375631,50.5125 28.3822314,50.5125 C25.9268997,50.5125 23.5721277,50.0694337 21.3896107,49.2592012 C21.3644708,49.2307387 21.3458486,49.19943 21.3188465,49.1709675 C20.92685,48.770595 20.4026362,48.5950762 19.8886646,48.626385 C12.8224864,45.3304275 7.8978564,38.0630025 7.8978564,29.64 C7.8978564,18.1307137 17.0869608,8.7675 28.3822314,8.7675 C39.677502,8.7675 48.8666064,18.1307137 48.8666064,29.64 C48.8666064,38.0630025 43.9419764,45.3304275 36.8757982,48.626385 L36.8757982,48.626385 Z" id="Shape"></path>
            </g>
        </g>
    </g>
</svg>