<?xml version="1.0" encoding="UTF-8" standalone="no"?>
<svg width="199px" height="158px" viewBox="0 0 199 158" version="1.1" xmlns="http://www.w3.org/2000/svg" xmlns:xlink="http://www.w3.org/1999/xlink" xmlns:sketch="http://www.bohemiancoding.com/sketch/ns">
    <!-- Generator: Sketch 3.0.2 (7799) - http://www.bohemiancoding.com/sketch -->
    <title>world-cup-2014-kick-off</title>
    <description>Created with Sketch.</description>
    <defs></defs>
    <g id="Page-1" stroke="none" stroke-width="1" fill="none" fill-rule="evenodd" sketch:type="MSPage">
        <g id="world-cup-2014-kick-off" sketch:type="MSLayerGroup" transform="translate(1.000000, 0.000000)" fill="#FFFFFF">
            <g id="football-clock" transform="translate(51.000000, 49.000000)" sketch:type="MSShapeGroup">
                <path d="M52.5910382,29.64 C52.5910382,16.0377712 41.730595,4.9725 28.3822314,4.9725 C15.0338678,4.9725 4.17342459,16.0377712 4.17342459,29.64 C4.17342459,38.9159287 9.22654746,47.009715 16.6735489,51.2212162 L11.2368095,56.7609675 C10.5096142,57.5019412 10.5096142,58.7030587 11.2368095,59.4440325 C11.5999416,59.8149937 12.0766689,60 12.5533962,60 C13.0301235,60 13.5068507,59.8149937 13.8699828,59.4440325 L20.3020766,52.8900675 C22.8309658,53.8046625 25.549801,54.3075 28.3822314,54.3075 C31.2146618,54.3075 33.933497,53.8046625 36.4623862,52.8900675 L42.89448,59.4440325 C43.2576121,59.8149937 43.7343394,60 44.2110666,60 C44.6877939,60 45.1645212,59.8149937 45.5276533,59.4440325 C46.2548486,58.7030587 46.2548486,57.5019413 45.5276533,56.7609675 L40.0909139,51.2212162 C47.5379154,47.009715 52.5910382,38.9159287 52.5910382,29.64 L52.5910382,29.64 Z M36.8757982,48.626385 C36.3618266,48.5950762 35.8376128,48.770595 35.4456163,49.1709675 C35.4186142,49.1984813 35.3999921,49.22979 35.3748521,49.2592012 C33.1923351,50.0694337 30.8375631,50.5125 28.3822314,50.5125 C25.9268997,50.5125 23.5721277,50.0694337 21.3896107,49.2592012 C21.3644708,49.2307387 21.3458486,49.19943 21.3188465,49.1709675 C20.92685,48.770595 20.4026362,48.5950762 19.8886646,48.626385 C12.8224864,45.3304275 7.8978564,38.0630025 7.8978564,29.64 C7.8978564,18.1307137 17.0869608,8.7675 28.3822314,8.7675 C39.677502,8.7675 48.8666064,18.1307137 48.8666064,29.64 C48.8666064,38.0630025 43.9419764,45.3304275 36.8757982,48.626385 L36.8757982,48.626385 Z" id="Shape"></path>
                <path d="M16.6798679,3.24567375 C16.4815419,2.57585625 15.9368437,2.07207 15.2627216,1.93450125 L5.95164205,0.03700125 C5.34176634,-0.08823375 4.70954403,0.10626 4.27006108,0.5559675 L0.545629261,4.3509675 C0.105215199,4.79972625 -0.0856619318,5.44203 0.0363132102,6.06535875 L1.89852912,15.5528588 C2.03353977,16.238805 2.52702699,16.7938238 3.1843892,16.9959075 C3.36223082,17.050935 3.54379687,17.0775 3.72443182,17.0775 C4.21047017,17.0775 4.68719744,16.8830063 5.04101847,16.5215325 L16.2143139,5.1365325 C16.7003523,4.64223375 16.879125,3.9145425 16.6798679,3.24567375 L16.6798679,3.24567375 Z M4.10794117,12.4797116 L2.82660915,5.95042695 L5.84022446,2.87971157 L12.2480968,4.18655665 L4.10794117,12.4797116 L4.10794117,12.4797116 Z" id="Shape"></path>
                <path d="M53.2755682,17.3175 C53.4562031,17.3175 53.6377692,17.290935 53.8156108,17.2359075 C54.472973,17.032875 54.9673913,16.4778563 55.1014709,15.7928588 L56.9636868,6.30535875 C57.0856619,5.68297875 56.8947848,5.03972625 56.4543707,4.5909675 L52.7299389,0.7959675 C52.2895249,0.34626 51.6573026,0.15176625 51.048358,0.27700125 L41.7372784,2.17450125 C41.0631562,2.31207 40.5184581,2.81585625 40.3201321,3.48567375 C40.120875,4.1545425 40.3005788,4.88223375 40.7856861,5.3765325 L51.9589815,16.7615325 C52.3128026,17.1230063 52.7895298,17.3175 53.2755682,17.3175 L53.2755682,17.3175 Z M51.1232437,3.11971157 L54.136859,6.19042695 L52.855527,12.7197116 L44.7153714,4.42532145 L51.1232437,3.11971157 L51.1232437,3.11971157 Z" id="Shape"></path>
                <polygon id="Polygon-1" points="28.2615322 23.9606325 33.4363439 28.0029372 31.4597417 34.5435235 25.0633227 34.5435235 23.0867205 28.0029372 "></polygon>
                <polygon id="Polygon-2" points="28.2615322 10.665 33.4363439 13.0536346 31.4597417 16.9185265 25.0633227 16.9185265 23.0867205 13.0536346 "></polygon>
                <polygon id="Polygon-3" points="42.780798 21.478608 47.9556097 23.8672426 45.9790075 27.7321345 39.5825885 27.7321345 37.6059863 23.8672426 "></polygon>
                <polygon id="Polygon-4" points="36.9267369 38.8174631 42.1015486 41.2060976 40.1249464 45.0709896 33.7285274 45.0709896 31.7519252 41.2060976 "></polygon>
                <polygon id="Polygon-5" points="19.5523006 38.7826659 24.7271123 41.1713005 22.7505101 45.0361924 16.3540911 45.0361924 14.377489 41.1713005 "></polygon>
                <polygon id="Polygon-6" points="13.7943903 21.5518378 18.969202 23.9404724 16.9925998 27.8053643 10.5961808 27.8053643 8.61957861 23.9404724 "></polygon>
            </g>
            <path d="M34.252,11.2 L37.468,34 L42.412,34 L46.972,0.4 L43.708,0.4 L39.916,29.056 L36.22,0.448 L32.524,0.448 L28.78,29.008 L24.844,0.4 L21.196,0.4 L25.804,34 L30.94,34 L34.252,11.2 Z M49.708,25.888 C49.708,30.976 52.252,34.336 57.388,34.336 C62.572,34.336 65.116,30.976 65.116,25.888 L65.116,8.512 C65.116,3.376 62.572,0.064 57.388,0.064 C52.252,0.064 49.708,3.376 49.708,8.512 L49.708,25.888 Z M53.404,8.32 C53.404,5.296 54.7,3.472 57.388,3.472 C60.124,3.472 61.372,5.296 61.372,8.32 L61.372,26.08 C61.372,29.152 60.124,30.928 57.388,30.928 C54.7,30.928 53.404,29.152 53.404,26.08 L53.404,8.32 Z M68.668,0.4 L68.668,34 L72.412,34 L72.412,19.648 L75.052,19.648 C78.172,19.648 79.948,20.848 79.948,24.64 L79.948,29.92 C79.948,32.176 80.14,33.04 80.572,34 L84.364,34 C83.74,32.848 83.692,31.456 83.692,29.968 L83.692,24.736 C83.692,21.136 82.54,18.64 79.468,17.728 C82.348,16.816 83.644,14.512 83.644,10.816 L83.644,8.08 C83.644,3.088 81.436,0.4 76.156,0.4 L68.668,0.4 Z M72.412,16.24 L72.412,3.808 L76.06,3.808 C78.844,3.808 79.948,5.392 79.948,8.416 L79.948,11.632 C79.948,15.28 78.172,16.24 75.196,16.24 L72.412,16.24 Z M100.924,34 L100.924,30.592 L91.324,30.592 L91.324,0.4 L87.58,0.4 L87.58,34 L100.924,34 Z M103.756,0.4 L103.756,34 L111.628,34 C116.86,34 119.26,30.832 119.26,25.696 L119.26,8.752 C119.26,3.568 116.86,0.4 111.628,0.4 L103.756,0.4 Z M107.5,30.592 L107.5,3.808 L111.532,3.808 C114.268,3.808 115.564,5.488 115.564,8.56 L115.564,25.84 C115.564,28.912 114.268,30.592 111.58,30.592 L107.5,30.592 Z M137.452,0.064 C132.316,0.064 129.916,3.424 129.916,8.512 L129.916,25.888 C129.916,30.976 132.316,34.336 137.452,34.336 C142.636,34.336 145.036,30.976 145.036,25.888 L145.036,21.712 L141.484,21.712 L141.484,26.08 C141.484,29.104 140.284,30.928 137.548,30.928 C134.86,30.928 133.612,29.104 133.612,26.08 L133.612,8.32 C133.612,5.296 134.86,3.472 137.548,3.472 C140.284,3.472 141.484,5.296 141.484,8.32 L141.484,11.536 L145.036,11.536 L145.036,8.512 C145.036,3.424 142.636,0.064 137.452,0.064 Z M151.996,0.4 L148.3,0.4 L148.3,25.888 C148.3,30.976 150.652,34.384 155.788,34.384 C160.972,34.384 163.324,30.976 163.324,25.888 L163.324,0.4 L159.82,0.4 L159.82,26.08 C159.82,29.104 158.62,30.928 155.932,30.928 C153.196,30.928 151.996,29.104 151.996,26.08 L151.996,0.4 Z M167.02,0.4 L167.02,34 L170.764,34 L170.764,20.752 L174.076,20.752 C179.404,20.752 181.9,17.968 181.9,12.64 L181.9,8.608 C181.9,3.52 179.644,0.4 174.364,0.4 L167.02,0.4 Z M170.764,17.392 L170.764,3.808 L174.364,3.808 C177.1,3.808 178.204,5.344 178.204,8.416 L178.204,12.88 C178.204,16.096 176.86,17.392 174.076,17.392 L170.764,17.392 Z" id="World-Cup" sketch:type="MSShapeGroup"></path>
            <path d="M36.036,157 L41.46,157 L34.116,138.376 L41.46,123.4 L36.18,123.4 L29.268,138.04 L29.268,123.4 L23.988,123.4 L23.988,157 L29.268,157 L29.268,146.68 L30.9,143.608 L36.036,157 Z M47.86,157 L53.14,157 L53.14,123.4 L47.86,123.4 L47.86,157 Z M71.3,144.472 L71.3,149.272 C71.3,151.672 70.244,152.536 68.564,152.536 C66.884,152.536 65.828,151.672 65.828,149.272 L65.828,131.128 C65.828,128.728 66.884,127.816 68.564,127.816 C70.244,127.816 71.3,128.728 71.3,131.128 L71.3,134.728 L76.292,134.728 L76.292,131.464 C76.292,126.088 73.604,123.016 68.42,123.016 C63.236,123.016 60.548,126.088 60.548,131.464 L60.548,148.936 C60.548,154.312 63.236,157.384 68.42,157.384 C73.604,157.384 76.292,154.312 76.292,148.936 L76.292,144.472 L71.3,144.472 Z M95.556,157 L100.98,157 L93.636,138.376 L100.98,123.4 L95.7,123.4 L88.788,138.04 L88.788,123.4 L83.508,123.4 L83.508,157 L88.788,157 L88.788,146.68 L90.42,143.608 L95.556,157 Z M118.388,148.936 C118.388,154.312 121.22,157.384 126.404,157.384 C131.588,157.384 134.42,154.312 134.42,148.936 L134.42,131.464 C134.42,126.088 131.588,123.016 126.404,123.016 C121.22,123.016 118.388,126.088 118.388,131.464 L118.388,148.936 Z M123.668,131.128 C123.668,128.728 124.724,127.816 126.404,127.816 C128.084,127.816 129.14,128.728 129.14,131.128 L129.14,149.272 C129.14,151.672 128.084,152.584 126.404,152.584 C124.724,152.584 123.668,151.672 123.668,149.272 L123.668,131.128 Z M147.108,128.2 L155.796,128.2 L155.796,123.4 L141.828,123.4 L141.828,157 L147.108,157 L147.108,143.128 L153.924,143.128 L153.924,138.328 L147.108,138.328 L147.108,128.2 Z M167.62,128.2 L176.308,128.2 L176.308,123.4 L162.34,123.4 L162.34,157 L167.62,157 L167.62,143.128 L174.436,143.128 L174.436,138.328 L167.62,138.328 L167.62,128.2 Z" id="Kick-Off" sketch:type="MSShapeGroup"></path>
            <path d="M34.7,99 L34.2,96 C34.2,95.666665 34.299999,95.16667 34.5,94.5 C35.966674,91.16665 38.199985,89.5 41.2,89.5 L41.4,89.5 C43.133342,89.5 44.633327,90.399991 45.9,92.2 C47.166673,94.000009 47.8,95.799991 47.8,97.6 C47.8,100.733349 46.766677,103.683319 44.7,106.45 C42.633323,109.21668 40.066682,110.6 37,110.6 C34.933323,110.6 33.066675,110.200004 31.4,109.4 C29.733325,108.599996 27.733345,107.25001 25.4,105.35 C23.066655,103.44999 21.533337,102.233336 20.8,101.7 C18.666656,103.70001 16.200014,105.466659 13.4,107 C10.73332,108.800009 8.433343,109.7 6.5,109.7 C4.566657,109.7 2.93334,108.31668 1.6,105.55 C0.26666,102.78332 -0.4,100.300011 -0.4,98.1 C-0.4,95.899989 0.2833265,94.0166745 1.65,92.45 C3.0166735,90.8833255 4.633324,90.1 6.5,90.1 C8.833345,90.1 10.933324,90.733327 12.8,92 C15.46668,94.00001 17.766657,95.466662 19.7,96.4 C24.500024,91.133307 28.766648,85.0167015 32.5,78.05 C36.233352,71.0832985 38.1,65.333356 38.1,60.8 C38.1,59.133325 37.500006,57.566674 36.3,56.1 C35.099994,54.633326 33.633342,53.666669 31.9,53.2 C31.433331,53.066666 30.466674,52.66667 29,52 C27.533326,51.33333 25.8833425,51 24.05,51 C22.2166575,51 20.833338,51.133332 19.9,51.4 C16.499983,52.533339 13.8500095,53.966658 11.95,55.7 C10.0499905,57.433342 9.066667,59.933317 9,63.2 C9,64.266672 9.4833285,65.366661 10.45,66.5 C11.4166715,67.633339 12.433328,68.2 13.5,68.2 L14.5,68.2 C15.100003,68.2 15.8499955,67.8166705 16.75,67.05 C17.6500045,66.2833295 18.1166665,65.3500055 18.15,64.25 C18.1833335,63.1499945 17.600006,62.533334 16.4,62.4 C15.799997,62.266666 15.533333,61.900003 15.6,61.3 C15.666667,60.699997 16.03333,60.433333 16.7,60.5 L16.8,60.4 C17.866672,60.533334 18.7833295,60.9833295 19.55,61.75 C20.3166705,62.5166705 20.6833335,63.599993 20.65,65 C20.6166665,66.400007 19.866674,67.699994 18.4,68.9 C16.866659,70.166673 15.2500085,70.8 13.55,70.8 C11.8499915,70.8 10.33334,69.9500085 9,68.25 C7.66666,66.5499915 7,64.866675 7,63.2 C7.066667,55.533295 10.966628,50.500012 18.7,48.1 C21.36668,47.166662 23.999987,46.7 26.6,46.7 C29.200013,46.7 31.7166545,47.066663 34.15,47.8 C36.5833455,48.533337 38.8166565,50.1166545 40.85,52.55 C42.8833435,54.9833455 43.9,57.733318 43.9,60.8 C43.9,66.466695 41.9500195,72.833298 38.05,79.9 C34.1499805,86.966702 29.433361,93.266639 23.9,98.8 C25.700009,99.800005 27.233327,100.833328 28.5,101.9 C29.766673,102.966672 30.533332,103.599999 30.8,103.8 C31.066668,104.000001 31.499997,104.316665 32.1,104.75 C32.700003,105.183335 33.199998,105.466666 33.6,105.6 C35.133341,106.066669 36.266663,106.3 37,106.3 C39.133344,106.3 40.899993,105.383342 42.3,103.55 C43.700007,101.716657 44.4,99.9833415 44.4,98.35 C44.4,96.7166585 44.266668,95.600003 44,95 C43.33333,93.399992 42.466672,92.533334 41.4,92.4 C39.39999,92.4 37.866672,93.466656 36.8,95.6 L36.6,99 C36.6,99.400002 36.433335,99.6833325 36.1,99.85 C35.766665,100.016667 35.4500015,100.016667 35.15,99.85 C34.8499985,99.6833325 34.7,99.400002 34.7,99 Z M9.05,93.45 C8.2833295,93.0833315 7.366672,92.9 6.3,92.9 C5.233328,92.9 4.200005,93.699992 3.2,95.3 C3.066666,95.566668 3,96.433326 3,97.9 C3,99.366674 3.33333,100.916658 4,102.55 C4.66667,104.183341 5.699993,105 7.1,105 C8.500007,105 9.966659,104.500005 11.5,103.5 C13.366676,102.499995 15.199991,101.066676 17,99.2 C15.066657,98.066661 13.4500065,96.9166725 12.15,95.75 C10.8499935,94.5833275 9.8166705,93.8166685 9.05,93.45 Z" id="2" sketch:type="MSShapeGroup"></path>
            <path d="M129.55,99.8 C132.083346,99.8 133.35,100.46666 133.35,101.8 C133.35,102.266669 133.150002,102.683331 132.75,103.05 C132.349998,103.416669 131.81667,103.466668 131.15,103.2 C130.48333,102.933332 129.566673,102.8 128.4,102.8 C127.233328,102.8 125.500012,103.399994 123.2,104.6 C120.899989,105.800006 118.983341,107.566655 117.45,109.9 C116.78333,110.900005 116.100004,111.4 115.4,111.4 C114.699997,111.4 114.35,111.266668 114.35,111 C114.35,110.733332 114.416666,110.466668 114.55,110.2 C114.683334,109.933332 114.8,109.616669 114.9,109.25 C115.000001,108.883331 115.116666,108.600001 115.25,108.4 C117.316677,105.466652 120.083316,103.166675 123.55,101.5 C122.749996,101.099998 122.216668,99.4833475 121.95,96.65 C121.683332,93.8166525 121.55,91.766673 121.55,90.5 C121.55,81.433288 122.049995,75.4166815 123.05,72.45 C124.050005,69.4833185 124.916663,66.033353 125.65,62.1 C124.183326,63.43334 122.916672,64.7166605 121.85,65.95 C120.783328,67.1833395 119.316676,67.8 117.45,67.8 C116.649996,67.8 116.000003,67.333338 115.5,66.4 C114.999998,65.466662 114.733334,64.7166695 114.7,64.15 C114.666667,63.5833305 114.816665,63.2166675 115.15,63.05 C115.483335,62.8833325 115.816665,62.8833325 116.15,63.05 C116.483335,63.2166675 116.65,63.7166625 116.65,64.55 C116.65,65.3833375 116.883331,65.8 117.35,65.8 C120.283348,65.8 123.116653,62.233369 125.85,55.1 C125.916667,54.899999 126.316663,54.066674 127.05,52.6 C127.383335,50.133321 127.899997,48.4500045 128.6,47.55 C129.300004,46.6499955 129.849998,46.2 130.25,46.2 C130.650002,46.2 131.049998,46.566663 131.45,47.3 C131.650001,47.500001 131.75,47.733332 131.75,48 C131.950001,48.200001 132.05,48.466665 132.05,48.8 C132.516669,50.066673 132.75,51.6499905 132.75,53.55 C132.75,55.4500095 132.400004,58.3166475 131.7,62.15 C130.999997,65.9833525 129.70001,70.7833045 127.8,76.55 C125.899991,82.3166955 124.95,86.966649 124.95,90.5 C124.95,94.033351 125.483328,96.699991 126.55,98.5 C126.816668,99.100003 126.883334,99.666664 126.75,100.2 C127.750005,99.933332 128.683329,99.8 129.55,99.8 L129.55,99.8 Z M193.55,63.8 C196.483348,63.8 197.95,65.566649 197.95,69.1 C197.95,74.566694 196.133352,79.1833145 192.5,82.95 C188.866649,86.7166855 184.316694,88.833331 178.85,89.3 L176.95,89.3 C177.016667,92.233348 177.399997,95.2833175 178.1,98.45 C178.800004,101.616682 179.683328,103.799994 180.75,105 C181.816672,106.200006 182.583331,106.8 183.05,106.8 C184.783342,106.8 186.099996,106.266672 187,105.2 C187.900005,104.133328 188.35,102.983339 188.35,101.75 C188.35,100.516661 188.000004,99.7166685 187.3,99.35 C186.599997,98.9833315 186.233334,98.4833365 186.2,97.85 C186.166667,97.2166635 186.399998,96.700002 186.9,96.3 C187.400003,95.899998 187.949997,95.866665 188.55,96.2 C189.683339,96.733336 190.25,98.299987 190.25,100.9 C190.25,104.23335 189.283343,106.966656 187.35,109.1 C186.149994,110.500007 184.716675,111.2 183.05,111.2 L182.85,111.2 C181.049991,111.2 179.433341,110.400008 178,108.8 C176.56666,107.199992 175.483337,105.133346 174.75,102.6 C173.349993,97.93331 172.583334,93.466688 172.45,89.2 C171.716663,89.133333 169.883348,88.866669 166.95,88.4 C164.016652,87.933331 161.583343,87.7 159.65,87.7 L155.05,87.3 C153.04999,87.3 150.950011,87.733329 148.75,88.6 C147.283326,89.600005 146.133338,90.199999 145.3,90.4 C144.466663,90.600001 143.750003,90.3833365 143.15,89.75 C142.549997,89.1166635 142.25,88.300005 142.25,87.3 C142.25,86.299995 142.849994,85.46667 144.05,84.8 C144.250001,84.666666 144.516665,84.466668 144.85,84.2 C145.383336,83.799998 146.949987,83.133338 149.55,82.2 C151.083341,80.86666 153.18332,78.766681 155.85,75.9 C158.51668,73.033319 159.883333,71.566667 159.95,71.5 C163.616685,67.966649 166.266659,65.1500105 167.9,63.05 C169.533342,60.9499895 171.299991,58.700012 173.2,56.3 C175.10001,53.899988 176.316664,52.3500035 176.85,51.65 C177.383336,50.9499965 177.816665,50.633333 178.15,50.7 C178.483335,50.766667 178.7,50.9499985 178.8,51.25 C178.900001,51.5500015 178.850001,51.866665 178.65,52.2 C177.783329,53.333339 176.550008,55.1833205 174.95,57.75 C173.349992,60.3166795 172.26667,61.9833295 171.7,62.75 C171.133331,63.5166705 170.333339,64.6499925 169.3,66.15 C168.266662,67.6500075 167.550002,68.699997 167.15,69.3 C165.549992,71.500011 164.350004,72.966663 163.55,73.7 C162.749996,74.433337 160.416686,77.066644 156.55,81.6 L159.65,81.9 C161.583343,81.9 164.049985,82.133331 167.05,82.6 C170.050015,83.066669 171.88333,83.333333 172.55,83.4 C172.750001,77.599971 173.416661,72.533355 174.55,68.2 C175.683339,63.866645 177.283323,59.166692 179.35,54.1 C181.416677,49.033308 182.683331,45.866673 183.15,44.6 C183.350001,44.133331 183.583332,43.9 183.85,43.9 C184.916672,43.9 185.283335,44.333329 184.95,45.2 C183.683327,49.066686 182.116676,54.899961 180.25,62.7 C178.383324,70.500039 177.283335,77.433303 176.95,83.5 C180.750019,83.233332 184.383316,82.5500055 187.85,81.45 C191.316684,80.3499945 193.549995,78.766677 194.55,76.7 C195.550005,74.633323 196.05,72.100015 196.05,69.1 C196.05,68.566664 195.483339,67.866671 194.35,67 C194.016665,66.933333 193.533337,66.9 192.9,66.9 C192.266664,66.9 191.583337,67.266663 190.85,68 C190.116663,68.733337 189.75,69.599995 189.75,70.6 C189.75,71.600005 190.016664,72.3166645 190.55,72.75 C191.083336,73.1833355 191.116669,73.6166645 190.65,74.05 C190.183331,74.4833355 189.750002,74.500002 189.35,74.1 C188.283328,73.166662 187.75,71.900008 187.75,70.3 C187.75,68.699992 188.266662,67.2166735 189.3,65.85 C190.333339,64.4833265 191.749991,63.8 193.55,63.8 L193.55,63.8 Z" id="14" sketch:type="MSShapeGroup"></path>
        </g>
    </g>
</svg>